# xmcd
# Copyright (C) 1995-1998 Ti Kan
#
# Track frame offsets:
#       150
#       24764
#       61600
#       84969
#       118449
#       162746
#       189129
#       212519
#       247289
#       277176
#
# Disc length: 4102 seconds
#
# Revision: 0
# Processed by: cddbd v1.5.2PL0 Copyright (c) Steve Scherf et al.
# Submitted via: CD-Import v1.0
#
DISCID=8810040a
DTITLE=Limber Lumber - Diapassion
DYEAR=10
DGENRE=
TTITLE0=Slow Rumpel Blues
TTITLE1=Diapassion
TTITLE2=Ghost Of Yesterday
TTITLE3=Tell Me How
TTITLE4=Lilac Wine
TTITLE5=Hit Ro Miss
TTITLE6=Everybody Gotta Learn Sometimes
TTITLE7=Lukinosa
TTITLE8=Wonderfull World
TTITLE9=Homer In The Moonlight
EXTD=
EXTT0=
EXTT1=
EXTT2=
EXTT3=
EXTT4=
EXTT5=
EXTT6=
EXTT7=
EXTT8=
EXTT9=
PLAYORDER=
